<svg xmlns="http://www.w3.org/2000/svg" viewBox="0 0 200 200" width="200" height="200">
  <defs>
    <!-- Big check pattern - black/gray -->
    <pattern id="checkPattern" patternUnits="userSpaceOnUse" width="20" height="20">
      <rect width="20" height="20" fill="#555555"/>
      <rect width="10" height="10" fill="#2a2a2a"/>
      <rect x="10" y="10" width="10" height="10" fill="#2a2a2a"/>
    </pattern>
  </defs>

  <!-- Background -->
  <circle cx="100" cy="100" r="95" fill="#1a1a1a"/>

  <!-- Stickman Developer -->
  <!-- Head -->
  <circle cx="100" cy="50" r="18" fill="none" stroke="#ffffff" stroke-width="3"/>

  <!-- Messy hair -->
  <path d="M 85 35 Q 83 28 88 30" fill="none" stroke="#ffffff" stroke-width="2" stroke-linecap="round"/>
  <path d="M 95 33 Q 94 25 99 27" fill="none" stroke="#ffffff" stroke-width="2" stroke-linecap="round"/>
  <path d="M 108 34 Q 112 26 115 32" fill="none" stroke="#ffffff" stroke-width="2" stroke-linecap="round"/>

  <!-- Glasses only -->
  <rect x="86" y="43" width="10" height="8" rx="2" fill="none" stroke="#ffffff" stroke-width="1.5"/>
  <rect x="104" y="43" width="10" height="8" rx="2" fill="none" stroke="#ffffff" stroke-width="1.5"/>
  <line x1="96" y1="47" x2="104" y2="47" stroke="#ffffff" stroke-width="1.5"/>

  <!-- Happy smile -->
  <path d="M 94 57 Q 100 62 106 57" fill="none" stroke="#ffffff" stroke-width="2" stroke-linecap="round"/>

  <!-- Shirt body with check pattern - left side -->
  <path d="M 83 78 L 80 100 L 98 100 L 98 80 L 88 75 Z" fill="url(#checkPattern)" stroke="none"/>
  <!-- Shirt body with check pattern - right side -->
  <path d="M 117 78 L 120 100 L 102 100 L 102 80 L 112 75 Z" fill="url(#checkPattern)" stroke="none"/>

  <!-- Open collar - left side (smaller opening) -->
  <path d="M 94 68 L 88 74 L 92 80 L 98 80" fill="url(#checkPattern)" stroke="#ffffff" stroke-width="1.5"/>
  <!-- Open collar - right side (smaller opening) -->
  <path d="M 106 68 L 112 74 L 108 80 L 102 80" fill="url(#checkPattern)" stroke="#ffffff" stroke-width="1.5"/>

  <!-- Buttons (first one at the close point, then below) -->
  <circle cx="100" cy="83" r="2" fill="none" stroke="#ffffff" stroke-width="1"/>
  <circle cx="100" cy="91" r="2" fill="none" stroke="#ffffff" stroke-width="1"/>
  <circle cx="100" cy="99" r="2" fill="none" stroke="#ffffff" stroke-width="1"/>

  <!-- Arms with check pattern -->
  <path d="M 83 78 L 66 100 L 72 105 L 86 85 Z" fill="url(#checkPattern)" stroke="none"/>
  <path d="M 117 78 L 134 100 L 128 105 L 114 85 Z" fill="url(#checkPattern)" stroke="none"/>

  <!-- Laptop -->
  <rect x="50" y="100" width="100" height="60" rx="4" fill="#252525" stroke="#444444" stroke-width="2"/>
  <rect x="57" y="107" width="86" height="47" rx="2" fill="#0d1117"/>

  <!-- Code: print("Hello World") -->
  <text x="63" y="135" font-family="Consolas, monospace" font-size="10" fill="#c586c0">print</text>
  <text x="93" y="135" font-family="Consolas, monospace" font-size="10" fill="#ffffff">(</text>
  <text x="99" y="135" font-family="Consolas, monospace" font-size="10" fill="#ce9178">"Hello"</text>
  <text x="72" y="148" font-family="Consolas, monospace" font-size="10" fill="#ce9178">"World"</text>
  <text x="114" y="148" font-family="Consolas, monospace" font-size="10" fill="#ffffff">)</text>
</svg>